<svg width="65" height="66" viewBox="0 0 65 66" fill="none" xmlns="http://www.w3.org/2000/svg">
<rect width="65" height="65" transform="translate(0 0.666656)" fill="#E3DEFD" style="fill:#E3DEFD;fill:color(display-p3 0.8902 0.8706 0.9922);fill-opacity:1;"/>
<path d="M41.427 33.1567C34.817 32.2487 29.117 37.1567 29.5 43.6667M23.5 36.2327C26.28 35.8477 28.775 37.1907 30.124 39.3327M27 31.1667C27 31.6971 27.2107 32.2058 27.5858 32.5809C27.9609 32.9559 28.4696 33.1667 29 33.1667C29.5304 33.1667 30.0391 32.9559 30.4142 32.5809C30.7893 32.2058 31 31.6971 31 31.1667C31 30.6362 30.7893 30.1275 30.4142 29.7524C30.0391 29.3774 29.5304 29.1667 29 29.1667C28.4696 29.1667 27.9609 29.3774 27.5858 29.7524C27.2107 30.1275 27 30.6362 27 31.1667ZM23.5 32.5667C23.5 30.3267 23.5 29.2067 23.936 28.3507C24.3195 27.598 24.9314 26.9861 25.684 26.6027C26.54 26.1667 27.66 26.1667 29.9 26.1667H35.1C37.34 26.1667 38.46 26.1667 39.316 26.6027C40.0686 26.9861 40.6805 27.598 41.064 28.3507C41.5 29.2067 41.5 30.3267 41.5 32.5667V37.7667C41.5 40.0067 41.5 41.1267 41.064 41.9827C40.6805 42.7353 40.0686 43.3472 39.316 43.7307C38.46 44.1667 37.34 44.1667 35.1 44.1667H29.9C27.66 44.1667 26.54 44.1667 25.684 43.7307C24.9314 43.3472 24.3195 42.7353 23.936 41.9827C23.5 41.1267 23.5 40.0067 23.5 37.7667V32.5667Z" stroke="#414D5C" style="stroke:#414D5C;stroke:color(display-p3 0.2549 0.3020 0.3608);stroke-opacity:1;" stroke-width="1.25" stroke-linecap="round" stroke-linejoin="round"/>
</svg>
