<svg width="18" height="18" viewBox="0 0 18 18" fill="none" xmlns="http://www.w3.org/2000/svg">
<path d="M12.9653 12C14.065 10.6937 14.6676 9.04084 14.6667 7.33333C14.6667 5.88294 14.2366 4.46511 13.4308 3.25915C12.625 2.05319 11.4797 1.11326 10.1397 0.55822C8.79969 0.00317744 7.3252 -0.142047 5.90267 0.140911C4.48015 0.423869 3.17347 1.1223 2.14789 2.14789C1.1223 3.17347 0.423869 4.48015 0.140911 5.90267C-0.142047 7.3252 0.00317744 8.79969 0.55822 10.1397C1.11326 11.4797 2.05319 12.625 3.25915 13.4308C4.46511 14.2366 5.88294 14.6667 7.33333 14.6667C9.04084 14.6676 10.6937 14.065 12 12.9653L17.0573 18L18 17.0573L12.9653 12ZM7.33333 13.3333C6.14665 13.3333 4.98661 12.9814 3.99991 12.3222C3.01322 11.6629 2.24418 10.7258 1.79006 9.62943C1.33593 8.53308 1.21711 7.32668 1.44862 6.16279C1.68014 4.99891 2.25158 3.92981 3.09069 3.09069C3.92981 2.25158 4.99891 1.68014 6.16279 1.44862C7.32668 1.21711 8.53308 1.33593 9.62943 1.79006C10.7258 2.24418 11.6629 3.01322 12.3222 3.99991C12.9814 4.98661 13.3333 6.14665 13.3333 7.33333C13.3316 8.92409 12.6989 10.4492 11.574 11.574C10.4492 12.6989 8.92409 13.3316 7.33333 13.3333Z" fill="#414D5C" style="fill:#414D5C;fill:color(display-p3 0.2549 0.3020 0.3608);fill-opacity:1;"/>
<path d="M5.33334 6.66667H4V5.33334C4 4.97971 4.14048 4.64058 4.39053 4.39053C4.64058 4.14048 4.97971 4 5.33334 4H6.66667V5.33334H5.33334V6.66667ZM10.6667 6.66667H9.33333V5.33334H8V4H9.33333C9.68696 4 10.0261 4.14048 10.2761 4.39053C10.5262 4.64058 10.6667 4.97971 10.6667 5.33334V6.66667ZM6.66667 10.6667H5.33334C4.97971 10.6667 4.64058 10.5262 4.39053 10.2761C4.14048 10.0261 4 9.68696 4 9.33333V8H5.33334V9.33333H6.66667V10.6667ZM9.33333 10.6667H8V9.33333H9.33333V8H10.6667V9.33333C10.6667 9.68696 10.5262 10.0261 10.2761 10.2761C10.0261 10.5262 9.68696 10.6667 9.33333 10.6667Z" fill="#414D5C" style="fill:#414D5C;fill:color(display-p3 0.2549 0.3020 0.3608);fill-opacity:1;"/>
</svg>
