<svg width="857" height="483" viewBox="0 0 857 483" fill="none" xmlns="http://www.w3.org/2000/svg">
<rect width="857" height="482.04" fill="#F4F2FA" style="fill:#F4F2FA;fill:color(display-p3 0.9569 0.9490 0.9804);fill-opacity:1;"/>
<path d="M458.287 210.897H398.287C397.15 210.897 396.06 211.349 395.256 212.153C394.452 212.956 394.001 214.046 394.001 215.183V266.612C394.001 267.748 394.452 268.838 395.256 269.642C396.06 270.446 397.15 270.897 398.287 270.897H458.287C459.423 270.897 460.513 270.446 461.317 269.642C462.121 268.838 462.572 267.748 462.572 266.612V215.183C462.572 214.046 462.121 212.956 461.317 212.153C460.513 211.349 459.423 210.897 458.287 210.897ZM398.287 266.612V215.183H458.287V266.612H398.287Z" fill="#29009C" fill-opacity="0.4" style="fill:#29009C;fill:color(display-p3 0.1608 0.0000 0.6118);fill-opacity:0.4;"/>
<path d="M408.83 232.326C410.101 232.326 411.344 231.949 412.401 231.242C413.458 230.536 414.282 229.532 414.769 228.357C415.255 227.183 415.383 225.89 415.135 224.643C414.887 223.396 414.274 222.251 413.375 221.352C412.476 220.453 411.331 219.84 410.084 219.592C408.837 219.344 407.544 219.472 406.369 219.958C405.195 220.445 404.191 221.269 403.484 222.326C402.778 223.383 402.401 224.626 402.401 225.897C402.401 227.602 403.078 229.237 404.284 230.443C405.489 231.649 407.125 232.326 408.83 232.326ZM408.83 222.469C409.509 222.464 410.174 222.662 410.74 223.036C411.307 223.41 411.75 223.944 412.012 224.57C412.275 225.196 412.346 225.886 412.216 226.553C412.086 227.219 411.762 227.832 411.283 228.314C410.804 228.796 410.193 229.124 409.528 229.258C408.862 229.392 408.172 229.326 407.544 229.067C406.916 228.808 406.379 228.369 406.002 227.804C405.624 227.24 405.422 226.576 405.422 225.897C405.428 224.995 405.789 224.132 406.427 223.494C407.064 222.857 407.928 222.496 408.83 222.49V222.469Z" fill="#29009C" fill-opacity="0.4" style="fill:#29009C;fill:color(display-p3 0.1608 0.0000 0.6118);fill-opacity:0.4;"/>
<path d="M438.53 235.262L426.958 246.833L418.387 238.262C417.985 237.862 417.442 237.638 416.876 237.638C416.31 237.638 415.767 237.862 415.365 238.262L402.401 251.397V257.462L416.951 242.912L424.001 249.854L415.965 257.89H421.858L439.965 239.783L454.001 253.754V247.712L441.551 235.262C441.149 234.862 440.606 234.638 440.04 234.638C439.474 234.638 438.931 234.862 438.53 235.262Z" fill="#29009C" fill-opacity="0.4" style="fill:#29009C;fill:color(display-p3 0.1608 0.0000 0.6118);fill-opacity:0.4;"/>
</svg>
