<svg width="21" height="25" viewBox="0 0 21 25" fill="none" xmlns="http://www.w3.org/2000/svg">
<path opacity="0.5" fill-rule="evenodd" clip-rule="evenodd" d="M2.84586 0.536823L19.6419 10.8721C19.8842 11.021 20.0843 11.2295 20.2231 11.4777C20.3619 11.726 20.4348 12.0056 20.4348 12.29C20.4348 12.5745 20.3619 12.8541 20.2231 13.1024C20.0843 13.3506 19.8842 13.5591 19.6419 13.708L2.84586 24.0433C2.59364 24.1984 2.30459 24.2835 2.00853 24.2897C1.71246 24.2959 1.42011 24.2229 1.16164 24.0784C0.90316 23.9339 0.687919 23.7231 0.538122 23.4676C0.388324 23.2122 0.309395 22.9214 0.309479 22.6253V1.9548C0.309395 1.65867 0.388324 1.36788 0.538122 1.11244C0.687919 0.856994 0.90316 0.646144 1.16164 0.501641C1.42011 0.357139 1.71246 0.284218 2.00853 0.290402C2.30459 0.296587 2.59364 0.381652 2.84586 0.536823Z" fill="white" style="fill:white;fill-opacity:1;"/>
</svg>
