<svg width="25" height="24" viewBox="0 0 25 24" fill="none" xmlns="http://www.w3.org/2000/svg">
<rect width="24.0627" height="24" fill="#FFC700" style="fill:#FFC700;fill:color(display-p3 1.0000 0.7800 0.0000);fill-opacity:1;"/>
<path fill-rule="evenodd" clip-rule="evenodd" d="M8.26819 6.12339L16.6662 11.291C16.7874 11.3655 16.8874 11.4697 16.9568 11.5938C17.0262 11.718 17.0627 11.8578 17.0627 12C17.0627 12.1422 17.0262 12.282 16.9568 12.4062C16.8874 12.5303 16.7874 12.6345 16.6662 12.709L8.26819 17.8766C8.14208 17.9542 7.99756 17.9967 7.84952 17.9998C7.70149 18.0029 7.55532 17.9664 7.42608 17.8942C7.29684 17.8219 7.18922 17.7165 7.11432 17.5888C7.03942 17.4611 6.99996 17.3157 7 17.1676V6.83238C6.99996 6.68432 7.03942 6.53892 7.11432 6.4112C7.18922 6.28348 7.29684 6.17805 7.42608 6.1058C7.55532 6.03355 7.70149 5.99709 7.84952 6.00018C7.99756 6.00327 8.14208 6.04581 8.26819 6.12339Z" fill="#490972" style="fill:#490972;fill:color(display-p3 0.2877 0.0334 0.4458);fill-opacity:1;"/>
</svg>
